<svg id="visual" viewBox="0 0 1920 1080" width="1920" height="1080" xmlns="http://www.w3.org/2000/svg" xmlns:xlink="http://www.w3.org/1999/xlink" version="1.1"><rect x="0" y="0" width="1920" height="1080" fill="#001220"></rect><defs><linearGradient id="grad1_0" x1="43.8%" y1="100%" x2="100%" y2="0%"><stop offset="14.444444444444446%" stop-color="#001220" stop-opacity="1"></stop><stop offset="85.55555555555554%" stop-color="#001220" stop-opacity="1"></stop></linearGradient></defs><defs><linearGradient id="grad2_0" x1="0%" y1="100%" x2="56.3%" y2="0%"><stop offset="14.444444444444446%" stop-color="#001220" stop-opacity="1"></stop><stop offset="85.55555555555554%" stop-color="#001220" stop-opacity="1"></stop></linearGradient></defs><g transform="translate(1920, 1080)"><path d="M-810 0C-693.7 -54.6 -577.3 -109.2 -561.7 -232.7C-546.1 -356.1 -631.3 -548.5 -572.8 -572.8C-514.2 -597 -311.9 -453.2 -192.5 -464.7C-73.1 -476.2 -36.5 -643.1 0 -810L0 0Z" fill="#e78a00"></path></g><g transform="translate(0, 0)"><path d="M810 0C798.5 99.9 787.1 199.8 748.3 310C709.6 420.2 643.5 540.7 533.2 533.2C422.8 525.6 268.1 390 171.8 414.8C75.6 439.6 37.8 624.8 0 810L0 0Z" fill="#e78a00"></path></g></svg>